<svg width="18" height="18" viewBox="0 0 18 18" fill="none" xmlns="http://www.w3.org/2000/svg">
<path d="M13.1185 10.0634C15.395 7.78694 15.395 4.08274 13.1185 1.80625C10.8422 -0.470247 7.13783 -0.470247 4.86133 1.80625C2.58484 4.08274 2.58484 7.78674 4.86133 10.0634C5.84883 11.0511 7.10523 11.6097 8.39719 11.7403V14.129H5.9245V15.3147H8.39719V17.881H9.58266V15.3149H12.0552V14.1292H9.58266V11.7403C10.8746 11.6097 12.131 11.0511 13.1185 10.0634ZM5.69966 2.64477C6.60694 1.73769 7.79833 1.28405 8.98992 1.28405C10.1815 1.28405 11.3729 1.73749 12.2802 2.64457C14.0944 4.45893 14.0944 7.41075 12.2802 9.22511C10.4658 11.0393 7.51382 11.0391 5.69985 9.22511C3.88549 7.41095 3.88549 4.45893 5.69966 2.64477Z" fill="black"/>
</svg>
