<svg width="18" height="18" viewBox="0 0 18 18" fill="none" xmlns="http://www.w3.org/2000/svg">
<g clip-path="url(#clip0_71_13)">
<path d="M12.2251 0.098877V1.29205H15.8443L11.5235 5.61269C10.3135 4.59319 8.75303 3.97714 7.05069 3.97714C3.21748 3.97734 0.0989075 7.09591 0.0989075 10.9291C0.0989075 14.7623 3.21748 17.8809 7.05069 17.8809C10.8839 17.8809 14.0025 14.7623 14.0025 10.9291C14.0025 9.22679 13.3864 7.66632 12.3669 6.45635L16.6878 2.13551V5.75475H17.8809V0.098877H12.2251ZM7.05069 16.6877C3.87542 16.6877 1.29188 14.1044 1.29188 10.9291C1.29188 7.75384 3.87522 5.17031 7.05069 5.17031C10.2262 5.17031 12.8095 7.75365 12.8095 10.9291C12.8095 14.1044 10.2262 16.6877 7.05069 16.6877Z" fill="black"/>
</g>
<defs>
<clipPath id="clip0_71_13">
<rect width="18" height="18" fill="white"/>
</clipPath>
</defs>
</svg>
