<svg width="18" height="18" viewBox="0 0 18 18" fill="none" xmlns="http://www.w3.org/2000/svg">
<path d="M12.375 7.875V5.0625C12.375 4.16739 12.0194 3.30895 11.3865 2.67601C10.7535 2.04308 9.89511 1.6875 9 1.6875C8.10489 1.6875 7.24645 2.04308 6.61351 2.67601C5.98058 3.30895 5.625 4.16739 5.625 5.0625V7.875M5.0625 16.3125H12.9375C13.3851 16.3125 13.8143 16.1347 14.1307 15.8182C14.4472 15.5018 14.625 15.0726 14.625 14.625V9.5625C14.625 9.11495 14.4472 8.68573 14.1307 8.36926C13.8143 8.05279 13.3851 7.875 12.9375 7.875H5.0625C4.61495 7.875 4.18573 8.05279 3.86926 8.36926C3.55279 8.68573 3.375 9.11495 3.375 9.5625V14.625C3.375 15.0726 3.55279 15.5018 3.86926 15.8182C4.18573 16.1347 4.61495 16.3125 5.0625 16.3125Z" stroke="black" stroke-width="1.5" stroke-linecap="round" stroke-linejoin="round"/>
</svg>
