<svg width="23" height="34" viewBox="0 0 23 34" fill="none" xmlns="http://www.w3.org/2000/svg">
<g clip-path="url(#clip0_86_44)">
<path d="M15.99 1.125C16.439 1.125 16.804 1.478 16.804 1.912V31.838C16.8003 32.0503 16.7125 32.2524 16.5599 32.4C16.4072 32.5475 16.2023 32.6285 15.99 32.625H1.977C1.7649 32.6282 1.56018 32.5472 1.40776 32.3996C1.25535 32.2521 1.16768 32.0501 1.164 31.838V1.912C1.164 1.478 1.529 1.125 1.977 1.125H15.99ZM15.99 0H1.977C0.885 0 0 0.856 0 1.912V31.838C0 32.894 0.886 33.75 1.977 33.75H15.99C17.082 33.75 17.968 32.894 17.968 31.838V1.912C17.968 0.856 17.082 0 15.99 0Z" fill="#FFCF0D"/>
<path d="M4.01001 0.746948C4.01001 1.80695 4.73001 2.67195 5.61001 2.67195H12.358C13.238 2.67195 13.958 1.80595 13.958 0.746948H4.01001ZM10.094 1.68695H6.42201C6.39697 1.68748 6.37208 1.68305 6.34876 1.67393C6.32544 1.66481 6.30416 1.65116 6.28613 1.63379C6.2681 1.61641 6.25368 1.59564 6.24371 1.57267C6.23373 1.5497 6.2284 1.52499 6.22801 1.49995C6.2284 1.47491 6.23373 1.4502 6.24371 1.42723C6.25368 1.40426 6.2681 1.38349 6.28613 1.36611C6.30416 1.34873 6.32544 1.33509 6.34876 1.32597C6.37208 1.31684 6.39697 1.31242 6.42201 1.31295H10.094C10.119 1.31242 10.1439 1.31684 10.1673 1.32597C10.1906 1.33509 10.2119 1.34873 10.2299 1.36611C10.2479 1.38349 10.2623 1.40426 10.2723 1.42723C10.2823 1.4502 10.2876 1.47491 10.288 1.49995C10.2878 1.52507 10.2825 1.54989 10.2726 1.57298C10.2627 1.59606 10.2483 1.61695 10.2302 1.63443C10.2122 1.65192 10.1909 1.66565 10.1675 1.67484C10.1441 1.68402 10.1191 1.68748 10.094 1.68695ZM11.275 1.76095C11.2048 1.76202 11.137 1.73529 11.0864 1.68658C11.0359 1.63788 11.0066 1.57115 11.005 1.50095C11.005 1.35595 11.126 1.23895 11.275 1.23895C11.425 1.23895 11.545 1.35595 11.545 1.49995C11.5437 1.57032 11.5145 1.63731 11.4639 1.68623C11.4133 1.73515 11.3454 1.76202 11.275 1.76095Z" fill="#FFCF0D"/>
<path d="M2.76099 8.97498H15.184" stroke="#FFCF0D"/>
<path d="M2.76099 13.379H10.216" stroke="#FFCF0D"/>
<path d="M2.76099 18.05H15.184" stroke="#FFCF0D"/>
<path d="M2.76099 22.454H15.184" stroke="#FFCF0D"/>
<path d="M2.75903 26.524H6.48903" stroke="#FFCF0D"/>
<path d="M15.115 12.411C11.036 12.411 7.72998 15.581 7.72998 19.493C7.72998 21.238 8.39198 22.834 9.48498 24.069L15.115 30.427L20.745 24.069C21.838 22.834 22.5 21.239 22.5 19.492C22.5 15.582 19.194 12.411 15.115 12.411ZM15.115 22.161C13.438 22.161 12.078 20.857 12.078 19.249C12.078 17.64 13.438 16.337 15.115 16.337C16.793 16.337 18.152 17.64 18.152 19.249C18.152 20.857 16.792 22.161 15.115 22.161Z" fill="#FFCF0D"/>
<path d="M2.76099 5.37195H14.494" stroke="#FFCF0D"/>
<path d="M11.81 31.3621H6.13604C6.02558 31.3621 5.93604 31.4516 5.93604 31.5621C5.93604 31.6725 6.02558 31.7621 6.13604 31.7621H11.81C11.9205 31.7621 12.01 31.6725 12.01 31.5621C12.01 31.4516 11.9205 31.3621 11.81 31.3621Z" fill="#FFCF0D"/>
</g>
<defs>
<clipPath id="clip0_86_44">
<rect width="23" height="34" fill="white"/>
</clipPath>
</defs>
</svg>
